<?xml version="1.0" encoding="UTF-8" standalone="no"?>
<svg width="134px" height="43px" viewBox="0 0 134 43" version="1.1" xmlns="http://www.w3.org/2000/svg" xmlns:xlink="http://www.w3.org/1999/xlink">
    <!-- Generator: Sketch 3.6.1 (26313) - http://www.bohemiancoding.com/sketch -->
    <title>Logo + Fill 1</title>
    <desc>Created with Sketch.</desc>
    <defs></defs>
    <g id="Page-1" stroke="none" stroke-width="1" fill="none" fill-rule="evenodd">
        <g id="00---Homepage" transform="translate(-252.000000, -29.000000)" fill="#FFFFFF">
            <g id="Nav">
                <g id="Logo-+-Fill-1" transform="translate(252.000000, 29.000000)">
                    <path d="M59.4639824,21.8496631 L59.4639824,10.7754135 L56.6666667,10.7754135 L56.6666667,8.4628539 L59.4639824,8.4628539 L59.4639824,3.83773473 L62.1219067,3.83773473 L62.1219067,8.4628539 L65.5483083,8.4628539 L65.5483083,10.7754135 L62.1219067,10.7754135 L62.1219067,21.2894415 C62.1219067,22.5503058 62.6809319,23.4608487 63.7997123,23.4608487 C64.5689193,23.4608487 65.2337653,23.1112587 65.5826088,22.7258321 L66.3525456,24.7231756 C65.6884295,25.3543391 64.7440709,25.8099763 63.240687,25.8099763 C60.7228839,25.8099763 59.4639824,24.3721229 59.4639824,21.8496631 Z M83.8374839,25.3891518 L79.4309636,11.791711 L75.0251731,25.3891518 L72.4022791,25.3891518 L67.0170997,8.46329272 L69.7450846,8.46329272 L73.8706327,21.9546864 L78.3121832,8.46329272 L80.5847742,8.46329272 L84.9912945,21.9546864 L89.1175723,8.46329272 L91.8805876,8.46329272 L86.4954082,25.3891518 L83.8374839,25.3891518 Z M94.8886689,8.46314645 L97.5108331,8.46314645 L97.5108331,25.3890056 L94.8886689,25.3890056 L94.8886689,8.46314645 Z M94.433275,4.29293305 C94.433275,3.3121796 95.2375124,2.50548977 96.2169013,2.50548977 C97.1955604,2.50548977 97.9654973,3.3121796 97.9654973,4.29293305 C97.9654973,5.27441786 97.1955604,6.04527105 96.2169013,6.04527105 C95.2375124,6.04527105 94.433275,5.27441786 94.433275,4.29293305 Z M101.322495,23.146364 L102.650727,21.2543363 C103.770238,22.5503058 105.903437,23.6722116 108.211058,23.6722116 C110.798922,23.6722116 112.232245,22.44499 112.232245,20.7628625 C112.232245,16.6628596 101.776429,19.1860508 101.776429,12.9131781 C101.776429,10.2502972 104.01472,8.04232204 108.035907,8.04232204 C110.938313,8.04232204 112.967152,9.12912265 114.295384,10.4960341 L113.071513,12.3178512 C112.057824,11.0913609 110.239897,10.1800866 108.035907,10.1800866 C105.729015,10.1800866 104.294232,11.3363664 104.294232,12.8436989 C104.294232,16.5231699 114.750778,14.1052945 114.750778,20.692652 C114.750778,23.5317906 112.476728,25.8099763 108.140998,25.8099763 C105.342952,25.8099763 103.036061,24.9338072 101.322495,23.146364 Z M130.521859,25.3891518 L124.471833,17.784473 L121.639487,20.5526697 L121.639487,25.3891518 L119.017323,25.3891518 L119.017323,2.015625 L121.639487,2.015625 L121.639487,17.4692569 L130.521859,8.46329272 L133.843899,8.46329272 L126.359821,16.1374508 L133.8782,25.3891518 L130.521859,25.3891518 Z M57.7572768,32.2945045 L58.6680647,32.2945045 L58.6680647,40.7731583 L57.7572768,40.7731583 L57.7572768,32.2945045 Z M57.5113349,30.2576675 C57.5113349,29.8722409 57.8448525,29.5738462 58.2126707,29.5738462 C58.5972743,29.5738462 58.9132768,29.8722409 58.9132768,30.2576675 C58.9132768,30.6445569 58.5972743,30.9605043 58.2126707,30.9605043 C57.8448525,30.9605043 57.5113349,30.6445569 57.5113349,30.2576675 Z M67.2152399,40.7733046 L67.2152399,35.0328617 C67.2152399,33.4004667 66.3920277,32.908993 65.1652373,32.908993 C64.0800277,32.908993 62.959058,33.5935457 62.4160882,34.3658616 L62.4160882,40.7733046 L61.5053003,40.7733046 L61.5053003,32.2946508 L62.4160882,32.2946508 L62.4160882,33.5759931 C63.0291186,32.8380511 64.237664,32.0840192 65.4637247,32.0840192 C67.1802095,32.0840192 68.1260277,32.9265456 68.1260277,34.8397828 L68.1260277,40.7733046 L67.2152399,40.7733046 Z M71.1379041,39.140617 L71.1379041,33.1017794 L69.7366919,33.1017794 L69.7366919,32.2950896 L71.1379041,32.2950896 L71.1379041,29.9774105 L72.0662071,29.9774105 L72.0662071,32.2950896 L73.7834218,32.2950896 L73.7834218,33.1017794 L72.0662071,33.1017794 L72.0662071,39.0001959 C72.0662071,39.6847487 72.3464495,40.1594012 72.9426945,40.1594012 C73.345543,40.1594012 73.695846,39.9655908 73.8892425,39.7549592 L74.2388157,40.4570646 C73.9060279,40.773012 73.5024496,40.984375 72.8025733,40.984375 C71.6808738,40.984375 71.1379041,40.2990909 71.1379041,39.140617 Z M79.3531671,32.874034 C77.3564398,32.874034 76.3580761,34.6285661 76.2880155,36.1037187 L82.4358338,36.1037187 C82.4183187,34.6644027 81.4717707,32.874034 79.3531671,32.874034 Z M75.3064372,36.5249819 C75.3064372,34.0676131 77.0236519,32.0841654 79.3706823,32.0841654 C81.9454096,32.0841654 83.3641369,34.120271 83.3641369,36.5776399 L83.3641369,36.8233767 L76.2880155,36.8233767 C76.3748615,38.6664033 77.6016519,40.1942139 79.5983792,40.1942139 C80.6668035,40.1942139 81.647652,39.789772 82.3657732,39.017456 L82.8386823,39.614977 C81.997955,40.4926087 80.9295308,40.9840825 79.5275888,40.9840825 C77.0579524,40.9840825 75.3064372,39.1403245 75.3064372,36.5249819 Z M85.7110942,40.7733046 L85.7110942,32.2946508 L86.6218821,32.2946508 L86.6218821,33.7515194 C87.3392736,32.8036772 88.3033367,32.1191244 89.4768519,32.1191244 L89.4768519,33.1196246 C89.3184857,33.0845193 89.1958797,33.0845193 89.0207282,33.0845193 C88.1624857,33.0845193 87.0064857,33.8568352 86.6218821,34.5940459 L86.6218821,40.7733046 L85.7110942,40.7733046 Z M96.6402571,39.1055849 L96.6402571,37.2450056 C96.0447419,36.4551371 95.0989237,36.0689791 94.0823151,36.0689791 C92.6986181,36.0689791 91.7703151,36.9634321 91.7703151,38.1752953 C91.7703151,39.3688744 92.6986181,40.2640588 94.0823151,40.2640588 C95.0989237,40.2640588 96.0447419,39.8779008 96.6402571,39.1055849 Z M96.6402571,40.7730852 L96.6402571,39.772585 C95.8871056,40.5975588 94.9405576,40.9837168 93.7670424,40.9837168 C92.3132848,40.9837168 90.8069817,39.9832166 90.8069817,38.1577426 C90.8069817,36.314716 92.2964994,35.3485898 93.7670424,35.3485898 C94.9405576,35.3485898 95.9038909,35.7354791 96.6402571,36.5604529 L96.6402571,34.8395634 C96.6402571,33.5757737 95.6243783,32.8912209 94.3800727,32.8912209 C93.3116484,32.8912209 92.4891661,33.2598263 91.7177696,34.137458 L91.21056,33.5055631 C92.0855878,32.5577209 93.0671661,32.0837998 94.4676485,32.0837998 C96.1848631,32.0837998 97.551045,32.9087736 97.551045,34.8044581 L97.551045,40.7730852 L96.6402571,40.7730852 Z M99.9150796,36.5251282 C99.9150796,34.0494754 101.526474,32.0843117 104.013625,32.0843117 C105.485628,32.0843117 106.326355,32.6635486 107.009446,33.5236277 L106.378171,34.0845807 C105.76587,33.2427856 104.995203,32.9092855 104.065441,32.9092855 C102.087688,32.9092855 100.878413,34.4890226 100.878413,36.5251282 C100.878413,38.5612338 102.087688,40.1592549 104.065441,40.1592549 C104.995203,40.1592549 105.76587,39.8074709 106.378171,38.9649444 L107.009446,39.5266287 C106.326355,40.4049918 105.485628,40.9842287 104.013625,40.9842287 C101.526474,40.9842287 99.9150796,39.0000497 99.9150796,36.5251282 Z M109.215698,39.140617 L109.215698,33.1017794 L107.814486,33.1017794 L107.814486,32.2950896 L109.215698,32.2950896 L109.215698,29.9774105 L110.143271,29.9774105 L110.143271,32.2950896 L111.860486,32.2950896 L111.860486,33.1017794 L110.143271,33.1017794 L110.143271,39.0001959 C110.143271,39.6847487 110.424244,40.1594012 111.019759,40.1594012 C111.421878,40.1594012 111.77291,39.9655908 111.965577,39.7549592 L112.31588,40.4570646 C111.983092,40.773012 111.580244,40.984375 110.878908,40.984375 C109.758668,40.984375 109.215698,40.2990909 109.215698,39.140617 Z M113.856849,32.2945045 L114.767636,32.2945045 L114.767636,40.7731583 L113.856849,40.7731583 L113.856849,32.2945045 Z M113.611636,30.2576675 C113.611636,29.8722409 113.943695,29.5738462 114.312243,29.5738462 C114.697576,29.5738462 115.012849,29.8722409 115.012849,30.2576675 C115.012849,30.6445569 114.697576,30.9605043 114.312243,30.9605043 C113.943695,30.9605043 113.611636,30.6445569 113.611636,30.2576675 Z M119.881915,40.7733046 L116.308824,32.2946508 L117.324703,32.2946508 L120.408099,39.7018625 L123.455006,32.2946508 L124.4884,32.2946508 L120.915309,40.7733046 L119.881915,40.7733046 Z M129.603043,32.874034 C127.606316,32.874034 126.607952,34.6285661 126.537162,36.1037187 L132.68644,36.1037187 C132.668195,34.6644027 131.722376,32.874034 129.603043,32.874034 Z M125.556313,36.5249819 C125.556313,34.0676131 127.273528,32.0841654 129.619828,32.0841654 C132.196015,32.0841654 133.614013,34.120271 133.614013,36.5776399 L133.614013,36.8233767 L126.537162,36.8233767 C126.625467,38.6664033 127.851528,40.1942139 129.848255,40.1942139 C130.916679,40.1942139 131.898258,39.789772 132.615649,39.017456 L133.088558,39.614977 C132.247831,40.4926087 131.179407,40.9840825 129.778195,40.9840825 C127.307828,40.9840825 125.556313,39.1403245 125.556313,36.5249819" id="Logo"></path>
                    <path d="M41.8726667,36.8247969 C39.5726667,39.1427656 29.1726667,40.3064531 23.998,40.3064531 C21.414,40.3064531 17.528,40.0162031 13.9973333,39.4370469 L13.9973333,22.8410625 L45.2986667,22.8410625 C45.1213333,27.6772187 44.022,34.6586719 41.8726667,36.8247969 M2.696,22.8410625 L11.3306667,22.8410625 L11.3306667,38.9237344 C8.936,38.3822031 6.97333333,37.6827812 6.122,36.8247969 C3.97266667,34.6586719 2.87333333,27.6772187 2.696,22.8410625 M6.19066667,6.23903125 C8.504,3.907625 19.0133333,2.6875 23.998,2.6875 C26.5813333,2.6875 30.468,2.97775 33.9973333,3.55690625 L33.9973333,20.1535625 L2.69666667,20.1535625 C2.88,15.367125 4.00066667,8.44546875 6.19066667,6.23903125 M45.2986667,20.1535625 L36.6646667,20.1535625 L36.6646667,4.07089063 C39.0593333,4.61175 41.0213333,5.31184375 41.8726667,6.16982813 C44.022,8.33595313 45.1213333,15.3167344 45.2986667,20.1535625 M43.758,4.26976563 C40.242,0.724953125 27.2766667,0 23.998,0 C20.748,0 7.88,0.736375 4.30466667,4.33829688 C0.774,7.89721875 0,17.931 0,21.4973125 C0,25.10125 0.761333333,35.2217031 4.23666667,38.7248594 C7.75333333,42.2696719 20.7186667,42.9939531 23.998,42.9939531 C27.2766667,42.9939531 40.2413333,42.2696719 43.758,38.7248594 C47.2333333,35.2217031 47.9946667,25.10125 47.9946667,21.4973125 C47.9946667,17.8927031 47.2333333,7.77225 43.758,4.26976563" id="Fill-1"></path>
                </g>
            </g>
        </g>
    </g>
</svg>