<?xml version="1.0" standalone="no"?>
<!DOCTYPE svg PUBLIC "-//W3C//DTD SVG 20010904//EN"
 "http://www.w3.org/TR/2001/REC-SVG-20010904/DTD/svg10.dtd">
<svg version="1.0" xmlns="http://www.w3.org/2000/svg"
 width="556.000000pt" height="556.000000pt" viewBox="0 0 556.000000 556.000000"
 preserveAspectRatio="xMidYMid meet">
<metadata>
Created by potrace 1.11, written by Peter Selinger 2001-2013
</metadata>
<g transform="translate(0.000000,556.000000) scale(0.100000,-0.100000)"
fill="#000000" stroke="none">
<path d="M2579 4056 c-2 -2 -44 -6 -94 -10 -49 -3 -101 -8 -115 -10 -14 -2
-47 -7 -75 -11 -127 -17 -133 -18 -238 -40 -309 -65 -453 -148 -539 -311 -80
-153 -143 -417 -165 -697 -12 -155 -6 -427 11 -537 2 -14 7 -43 10 -65 14
-100 18 -125 37 -205 27 -120 56 -203 98 -289 74 -154 170 -222 406 -290 66
-19 199 -48 255 -56 14 -2 41 -6 60 -8 33 -5 75 -11 165 -22 219 -27 607 -23
840 9 17 3 53 8 80 11 143 19 342 64 445 102 187 69 281 182 353 424 32 107
43 157 57 244 6 39 13 81 15 95 5 28 15 132 20 200 5 62 5 339 0 373 -2 15 -6
60 -10 100 -3 40 -8 79 -10 87 -2 8 -7 39 -10 69 -7 60 -12 84 -19 109 -3 9
-7 28 -10 42 -35 180 -117 361 -199 437 -59 55 -179 112 -312 148 -55 15 -109
29 -120 31 -11 2 -69 12 -130 23 -60 11 -146 22 -190 26 -44 4 -89 9 -100 12
-23 5 -511 14 -516 9z m426 -240 c50 -4 101 -9 115 -11 14 -2 52 -6 85 -10 33
-3 69 -8 80 -10 11 -2 23 -4 28 -4 4 -1 7 -201 7 -446 l0 -445 -870 0 -870 0
5 33 c2 17 7 66 10 109 11 156 64 390 111 493 26 56 69 110 107 134 60 37 250
91 402 115 179 28 237 34 370 42 55 4 101 7 102 8 5 4 230 -2 318 -8z m606
-97 c146 -46 190 -80 237 -181 23 -50 68 -198 77 -252 3 -17 10 -56 15 -86 16
-98 19 -123 26 -217 l6 -93 -208 0 -209 0 0 420 c0 300 3 420 11 420 6 0 26
-5 45 -11z m-1610 -1129 c3 -446 3 -780 -2 -780 -14 0 -137 44 -169 60 -89 45
-136 130 -185 330 -23 92 -44 230 -50 320 -4 47 -8 94 -10 106 -3 12 -3 23 -1
25 3 2 97 4 210 4 l206 0 1 -65z m1965 -20 c-21 -308 -96 -580 -183 -662 -54
-52 -262 -116 -458 -143 -22 -3 -53 -7 -70 -10 -41 -6 -114 -14 -220 -24 -90
-9 -499 -6 -565 3 -19 3 -57 8 -85 11 -94 10 -140 17 -144 21 -8 8 -7 868 0
879 5 7 306 10 869 10 l862 0 -6 -85z"/>
</g>
</svg>
